<svg width="24" height="24" viewBox="0 0 24 24" fill="none" xmlns="http://www.w3.org/2000/svg">
<path d="M12 9C11.7167 9 11.479 8.904 11.287 8.712C11.095 8.52 10.9993 8.28267 11 8V6H9C8.71667 6 8.479 5.904 8.287 5.712C8.095 5.52 7.99934 5.28267 8 5C8 4.71667 8.096 4.479 8.288 4.287C8.48 4.095 8.71734 3.99934 9 4H11V2C11 1.71667 11.096 1.479 11.288 1.287C11.48 1.095 11.7173 0.999337 12 1C12.2833 1 12.521 1.096 12.713 1.288C12.905 1.48 13.0007 1.71734 13 2V4H15C15.2833 4 15.521 4.096 15.713 4.288C15.905 4.48 16.0007 4.71734 16 5C16 5.28334 15.904 5.521 15.712 5.713C15.52 5.905 15.2827 6.00067 15 6H13V8C13 8.28334 12.904 8.521 12.712 8.713C12.52 8.905 12.2827 9.00067 12 9ZM7 22C6.45 22 5.979 21.804 5.587 21.412C5.195 21.02 4.99934 20.5493 5 20C5 19.45 5.196 18.979 5.588 18.587C5.98 18.195 6.45067 17.9993 7 18C7.55 18 8.021 18.196 8.413 18.588C8.805 18.98 9.00067 19.4507 9 20C9 20.55 8.804 21.021 8.412 21.413C8.02 21.805 7.54934 22.0007 7 22ZM17 22C16.45 22 15.979 21.804 15.587 21.412C15.195 21.02 14.9993 20.5493 15 20C15 19.45 15.196 18.979 15.588 18.587C15.98 18.195 16.4507 17.9993 17 18C17.55 18 18.021 18.196 18.413 18.588C18.805 18.98 19.0007 19.4507 19 20C19 20.55 18.804 21.021 18.412 21.413C18.02 21.805 17.5493 22.0007 17 22ZM7 17C6.23334 17 5.654 16.6707 5.262 16.012C4.87 15.3533 4.866 14.6993 5.25 14.05L6.6 11.6L3 4H2C1.71667 4 1.479 3.904 1.287 3.712C1.095 3.52 0.999337 3.28267 1 3C1 2.71667 1.096 2.479 1.288 2.287C1.48 2.095 1.71734 1.99934 2 2H3.625C3.80834 2 3.98334 2.05 4.15 2.15C4.31667 2.25 4.44167 2.39167 4.525 2.575L8.55 11H15.55L19.125 4.525C19.2083 4.35834 19.3293 4.229 19.488 4.137C19.6467 4.045 19.8173 3.99934 20 4C20.3833 4 20.671 4.16667 20.863 4.5C21.055 4.83334 21.059 5.16667 20.875 5.5L17.3 11.95C17.1167 12.2833 16.875 12.5417 16.575 12.725C16.275 12.9083 15.9333 13 15.55 13H8.1L7 15H18C18.2833 15 18.521 15.096 18.713 15.288C18.905 15.48 19.0007 15.7173 19 16C19 16.2833 18.904 16.521 18.712 16.713C18.52 16.905 18.2827 17.0007 18 17H7Z" fill="#636363"/>
</svg>
